<?xml version="1.0" encoding="iso-8859-1"?>
<!-- Uploaded to: SVG Repo, www.svgrepo.com, Generator: SVG Repo Mixer Tools -->
<svg version="1.1" id="Layer_1" xmlns="http://www.w3.org/2000/svg" xmlns:xlink="http://www.w3.org/1999/xlink" 
	 viewBox="0 0 496 496" xml:space="preserve">
<path style="fill:#0D8DD3;" d="M248,298.4L248,298.4L248,298.4L248,298.4L248,298.4c-8-0.8-16-2.4-24-4v126.4c0,13.6,10.4,24,24,24
	s24-10.4,24-24V294.4C264,296,256,297.6,248,298.4z"/>
<path style="fill:#0881C4;" d="M248,298.4L248,298.4L248,298.4L248,298.4c-8-0.8-16-2.4-24-4V376h48v-81.6
	C264,296,256,297.6,248,298.4L248,298.4z"/>
<path style="fill:#AEBFC1;" d="M398.4,456H97.6c-13.6,0-24-10.4-24-24s10.4-24,24-24h301.6c13.6,0,24,10.4,24,24
	C422.4,445.6,412,456,398.4,456z"/>
<path style="fill:#BECBCC;" d="M73.6,432c0-13.6,10.4-24,24-24h301.6c13.6,0,24,10.4,24,24"/>
<path style="fill:#0D8DD3;" d="M496,317.6c0,13.6-13.6,26.4-26.4,26.4H26.4C13.6,344,0,330.4,0,317.6V64c0-13.6,13.6-24,26.4-24
	h442.4c13.6,0,27.2,10.4,27.2,24V317.6z"/>
<path style="fill:#209DE2;" d="M469.6,40H26.4C13.6,40,0,50.4,0,64v214.4C0,292,13.6,304,26.4,304h442.4c13.6,0,26.4-12,26.4-25.6
	V64C496,50.4,482.4,40,469.6,40z"/>
<path style="fill:#1DAEEF;" d="M496,280V64c0-13.6-13.6-24-26.4-24H26.4C13.6,40,0,50.4,0,64"/>
<rect x="160" y="408" style="fill:#0D8DD3;" width="176" height="48"/>
<rect x="160" y="408" style="fill:#209DE2;" width="176" height="24"/>
<g>
	<path style="fill:#0D8DD3;" d="M78.4,172.8l56-56c7.2-7.2,17.6-7.2,24.8,0s7.2,17.6,0,24.8L128,172.8l31.2,31.2
		c7.2,7.2,7.2,17.6,0,24.8s-17.6,7.2-24.8,0L78.4,172.8z"/>
	<path style="fill:#0D8DD3;" d="M103.2,172c0-9.6,8-20,17.6-20H200c9.6,0,17.6,10.4,17.6,20s-8,20-17.6,20h-80
		C110.4,192,103.2,181.6,103.2,172z"/>
	<path style="fill:#0D8DD3;" d="M417.6,238.4l-56,56c-7.2,7.2-17.6,7.2-24.8,0c-7.2-7.2-7.2-17.6,0-24.8l31.2-31.2l-31.2-31.2
		c-7.2-7.2-7.2-17.6,0-24.8s17.6-7.2,24.8,0L417.6,238.4z"/>
	<path style="fill:#0D8DD3;" d="M392.8,240c0,9.6-8,16-17.6,16H296c-9.6,0-17.6-6.4-17.6-16s8-16,17.6-16h80
		C385.6,224,392.8,230.4,392.8,240z"/>
	<path style="fill:#0D8DD3;" d="M244,97.6c-2.4,0-4,1.6-4,4v208c0,2.4,1.6,4,4,4s4-1.6,4-4v-208C248,99.2,246.4,97.6,244,97.6z"/>
</g>
<g>
	<path style="fill:#FFFFFF;" d="M78.4,154.4l56-56c7.2-7.2,17.6-7.2,24.8,0s7.2,17.6,0,24.8L128,154.4l31.2,31.2
		c7.2,7.2,7.2,17.6,0,24.8s-17.6,7.2-24.8,0L78.4,154.4z"/>
	<path style="fill:#FFFFFF;" d="M417.6,219.2l-56,56c-7.2,7.2-17.6,7.2-24.8,0c-7.2-7.2-7.2-17.6,0-24.8l31.2-31.2L336.8,188
		c-7.2-7.2-7.2-17.6,0-24.8s17.6-7.2,24.8,0L417.6,219.2z"/>
	<path style="fill:#FFFFFF;" d="M392.8,220c0,9.6-8,20-17.6,20H296c-9.6,0-17.6-10.4-17.6-20s8-20,17.6-20h80
		C385.6,200,392.8,210.4,392.8,220z"/>
	<path style="fill:#FFFFFF;" d="M216.8,152c0,9.6-8,20-17.6,20H120c-9.6,0-17.6-10.4-17.6-20s8-20,17.6-20h79.2
		C208.8,132,216.8,142.4,216.8,152z"/>
	<path style="fill:#FFFFFF;" d="M244,79.2c-2.4,0-4,1.6-4,4v208c0,2.4,1.6,4,4,4s4-1.6,4-4v-208C248,80.8,246.4,79.2,244,79.2z"/>
</g>
</svg>